<svg xmlns="http://www.w3.org/2000/svg" viewBox="0 0 64 88" role="img" aria-label="Blue raindrop sprite">
	<defs>
		<linearGradient id="drop" x1="18" y1="8" x2="48" y2="80" gradientUnits="userSpaceOnUse">
			<stop offset="0" stop-color="#e6fbff" />
			<stop offset="0.45" stop-color="#47c7ff" />
			<stop offset="1" stop-color="#1665c1" />
		</linearGradient>
	</defs>
	<path
		d="M32 4 C24 18 12 32 12 50 C12 70 25 84 32 84 C39 84 52 70 52 50 C52 32 40 18 32 4 Z"
		fill="#0d2c7a"
		opacity="0.32"
		transform="translate(3 3)"
	/>
	<path
		d="M32 4 C24 18 12 32 12 50 C12 70 25 84 32 84 C39 84 52 70 52 50 C52 32 40 18 32 4 Z"
		fill="url(#drop)"
		stroke="#f8ffff"
		stroke-width="3"
	/>
	<path d="M25 30 C20 38 19 48 22 57" fill="none" stroke="#ffffff" stroke-width="5" stroke-linecap="round" opacity="0.72" />
</svg>
