<svg xmlns="http://www.w3.org/2000/svg" viewBox="0 0 900 520" role="img" aria-label="Curving multi-point vector trail for a raindrop path">
	<defs>
		<filter id="glow" x="-20%" y="-20%" width="140%" height="140%">
			<feGaussianBlur stdDeviation="5" result="blur" />
			<feMerge>
				<feMergeNode in="blur" />
				<feMergeNode in="SourceGraphic" />
			</feMerge>
		</filter>
		<marker id="arrow" viewBox="0 0 10 10" refX="8" refY="5" markerWidth="7" markerHeight="7" orient="auto-start-reverse">
			<path d="M0 0 L10 5 L0 10 Z" fill="#f8ffff" />
		</marker>
	</defs>
	<path
		d="M80 145 C150 22 224 416 302 380 C378 344 356 92 450 150 C542 206 502 442 604 388 C702 336 680 88 780 150 C842 188 812 306 850 360"
		fill="none"
		stroke="#06375f"
		stroke-width="18"
		stroke-linecap="round"
		stroke-linejoin="round"
		opacity="0.42"
	/>
	<path
		d="M80 145 C150 22 224 416 302 380 C378 344 356 92 450 150 C542 206 502 442 604 388 C702 336 680 88 780 150 C842 188 812 306 850 360"
		fill="none"
		stroke="#f8ffff"
		stroke-width="8"
		stroke-dasharray="26 18"
		stroke-linecap="round"
		stroke-linejoin="round"
		marker-end="url(#arrow)"
		filter="url(#glow)"
	/>
	<path
		d="M80 145 C150 22 224 416 302 380 C378 344 356 92 450 150 C542 206 502 442 604 388 C702 336 680 88 780 150 C842 188 812 306 850 360"
		fill="none"
		stroke="#17d7ff"
		stroke-width="4"
		stroke-dasharray="26 18"
		stroke-linecap="round"
		stroke-linejoin="round"
	/>
	<g filter="url(#glow)">
		<circle cx="80" cy="145" r="18" fill="#f8ffff" />
		<circle cx="302" cy="380" r="18" fill="#f8ffff" />
		<circle cx="450" cy="150" r="18" fill="#f8ffff" />
		<circle cx="604" cy="388" r="18" fill="#f8ffff" />
		<circle cx="780" cy="150" r="18" fill="#f8ffff" />
		<circle cx="850" cy="360" r="18" fill="#f8ffff" />
	</g>
	<g fill="#17d7ff" stroke="#062845" stroke-width="4">
		<circle cx="80" cy="145" r="9" />
		<circle cx="302" cy="380" r="9" />
		<circle cx="450" cy="150" r="9" />
		<circle cx="604" cy="388" r="9" />
		<circle cx="780" cy="150" r="9" />
		<circle cx="850" cy="360" r="9" />
	</g>
</svg>
