<svg xmlns="http://www.w3.org/2000/svg" viewBox="0 0 800 500" role="img" aria-label="A desk lit by a single lamp against a dark window at night">
	<defs>
		<radialGradient id="glow" cx="62%" cy="38%" r="45%">
			<stop offset="0%" stop-color="#ffd9a0" stop-opacity="0.95" />
			<stop offset="55%" stop-color="#e4a35a" stop-opacity="0.35" />
			<stop offset="100%" stop-color="#1b2330" stop-opacity="0" />
		</radialGradient>
	</defs>
	<rect width="800" height="500" fill="#141b27" />
	<rect x="70" y="40" width="300" height="240" rx="6" fill="#0d1320" stroke="#2b3a55" />
	<g stroke="#22304a" stroke-width="2">
		<line x1="220" y1="40" x2="220" y2="280" />
		<line x1="70" y1="160" x2="370" y2="160" />
	</g>
	<circle cx="300" cy="120" r="34" fill="#cdd9ff" opacity="0.85" />
	<rect width="800" height="500" fill="url(#glow)" />
	<rect x="0" y="360" width="800" height="140" fill="#3a2a1e" />
	<rect x="0" y="356" width="800" height="8" fill="#5a4232" />
	<g transform="translate(520 210)">
		<rect x="-12" y="150" width="24" height="14" rx="2" fill="#23303f" />
		<rect x="-6" y="60" width="12" height="92" fill="#2c3c50" />
		<path d="M-70 60 L70 60 L40 120 L-40 120 Z" fill="#e8c98f" />
		<circle cx="0" cy="92" r="14" fill="#fff3d6" />
	</g>
	<g transform="translate(170 330)">
		<rect x="-110" y="0" width="220" height="26" rx="3" fill="#caa46f" />
		<rect x="-96" y="-12" width="200" height="16" rx="2" fill="#e7d4ad" />
		<rect x="-96" y="-22" width="150" height="12" rx="2" fill="#efe2c4" />
	</g>
</svg>
